CddbId:6a0dbc2d:[150, 6645, 17312, 19900, 23315, 27542, 31610, 35337, 38637, 40615, 43262, 47705, 53282, 55700, 61032, 66252, 70397, 84055, 90212, 94422, 97352, 112295, 118625, 123437, 128680, 136745, 140132, 156092, 162207, 167562, 171570, 175530, 181082, 184432, 187247, 194960, 198772, 202377, 206245, 218400, 228922, 233325, 237070, 239597, 244612]:263850:74:6a0dbc2d 45 150 6645 17312 19900 23315 27542 31610 35337 38637 40615 43262 47705 53282 55700 61032 66252 70397 84055 90212 94422 97352 112295 118625 123437 128680 136745 140132 156092 162207 167562 171570 175530 181082 184432 187247 194960 198772 202377 206245 218400 228922 233325 237070 239597 244612 3518: 45 0 0 0 0 0 0 0 0 0 0 0 0 0 0 0 0 0 0 0 0 0 0 0 0 0 0 0 0 0 0 0 0 0 0 0 0 0 0 0 0 0 0 0 0 0 3518
num_tracks: 45
offsets: [150, 6645, 17312, 19900, 23315, 27542, 31610, 35337, 38637, 40615, 43262, 47705, 53282, 55700, 61032, 66252, 70397, 84055, 90212, 94422, 97352, 112295, 118625, 123437, 128680, 136745, 140132, 156092, 162207, 167562, 171570, 175530, 181082, 184432, 187247, 194960, 198772, 202377, 206245, 218400, 228922, 233325, 237070, 239597, 244612]
extents: [0, 0, 0, 0, 0, 0, 0, 0, 0, 0, 0, 0, 0, 0, 0, 0, 0, 0, 0, 0, 0, 0, 0, 0, 0, 0, 0, 0, 0, 0, 0, 0, 0, 0, 0, 0, 0, 0, 0, 0, 0, 0, 0, 0, 0]
total_length: 3518
cddb: [1779285037, 45, 150, 6645, 17312, 19900, 23315, 27542, 31610, 35337, 38637, 40615, 43262, 47705, 53282, 55700, 61032, 66252, 70397, 84055, 90212, 94422, 97352, 112295, 118625, 123437, 128680, 136745, 140132, 156092, 162207, 167562, 171570, 175530, 181082, 184432, 187247, 194960, 198772, 202377, 206245, 218400, 228922, 233325, 237070, 239597, 244612, 3518]
musicbrainz: ('45 150 6645 17312 19900 23315 27542 31610 35337 38637 40615 43262 47705 53282 55700 61032 66252 70397 84055 90212 94422 97352 112295 118625 123437 128680 136745 140132 156092 162207 167562 171570 175530 181082 184432 187247 194960 198772 202377 206245 218400 228922 233325 237070 239597 244612 263887', 'dbtPgiBY_vPYwE1T_ha4TRIUhBg-')

CD record:
Device type    : Removable CD-ROM
Version        : 0
Response Format: 1
Vendor_info    : 'SAMSUNG '
Identification : 'CD-ROM SC-148A  '
Revision       : 'B403'
Device seems to be: Generic mmc CD-ROM.
Using generic SCSI-3/mmc   CD-ROM driver (mmc_cd).
Driver flags   : MMC-2 SWABAUDIO 
Supported modes: 
first: 1 last 45
track:   1 lba:         0 (        0) 00:02:00 adr: 1 control: 0 mode: -1
track:   2 lba:      6495 (    25980) 01:28:45 adr: 1 control: 0 mode: -1
track:   3 lba:     17162 (    68648) 03:50:62 adr: 1 control: 0 mode: -1
track:   4 lba:     19750 (    79000) 04:25:25 adr: 1 control: 0 mode: -1
track:   5 lba:     23165 (    92660) 05:10:65 adr: 1 control: 0 mode: -1
track:   6 lba:     27392 (   109568) 06:07:17 adr: 1 control: 0 mode: -1
track:   7 lba:     31460 (   125840) 07:01:35 adr: 1 control: 0 mode: -1
track:   8 lba:     35187 (   140748) 07:51:12 adr: 1 control: 0 mode: -1
track:   9 lba:     38487 (   153948) 08:35:12 adr: 1 control: 0 mode: -1
track:  10 lba:     40465 (   161860) 09:01:40 adr: 1 control: 0 mode: -1
track:  11 lba:     43112 (   172448) 09:36:62 adr: 1 control: 0 mode: -1
track:  12 lba:     47555 (   190220) 10:36:05 adr: 1 control: 0 mode: -1
track:  13 lba:     53132 (   212528) 11:50:32 adr: 1 control: 0 mode: -1
track:  14 lba:     55550 (   222200) 12:22:50 adr: 1 control: 0 mode: -1
track:  15 lba:     60882 (   243528) 13:33:57 adr: 1 control: 0 mode: -1
track:  16 lba:     66102 (   264408) 14:43:27 adr: 1 control: 0 mode: -1
track:  17 lba:     70247 (   280988) 15:38:47 adr: 1 control: 0 mode: -1
track:  18 lba:     83905 (   335620) 18:40:55 adr: 1 control: 0 mode: -1
track:  19 lba:     90062 (   360248) 20:02:62 adr: 1 control: 0 mode: -1
track:  20 lba:     94272 (   377088) 20:58:72 adr: 1 control: 0 mode: -1
track:  21 lba:     97202 (   388808) 21:38:02 adr: 1 control: 0 mode: -1
track:  22 lba:    112145 (   448580) 24:57:20 adr: 1 control: 0 mode: -1
track:  23 lba:    118475 (   473900) 26:21:50 adr: 1 control: 0 mode: -1
track:  24 lba:    123287 (   493148) 27:25:62 adr: 1 control: 0 mode: -1
track:  25 lba:    128530 (   514120) 28:35:55 adr: 1 control: 0 mode: -1
track:  26 lba:    136595 (   546380) 30:23:20 adr: 1 control: 0 mode: -1
track:  27 lba:    139982 (   559928) 31:08:32 adr: 1 control: 0 mode: -1
track:  28 lba:    155942 (   623768) 34:41:17 adr: 1 control: 0 mode: -1
track:  29 lba:    162057 (   648228) 36:02:57 adr: 1 control: 0 mode: -1
track:  30 lba:    167412 (   669648) 37:14:12 adr: 1 control: 0 mode: -1
track:  31 lba:    171420 (   685680) 38:07:45 adr: 1 control: 0 mode: -1
track:  32 lba:    175380 (   701520) 39:00:30 adr: 1 control: 0 mode: -1
track:  33 lba:    180932 (   723728) 40:14:32 adr: 1 control: 0 mode: -1
track:  34 lba:    184282 (   737128) 40:59:07 adr: 1 control: 0 mode: -1
track:  35 lba:    187097 (   748388) 41:36:47 adr: 1 control: 0 mode: -1
track:  36 lba:    194810 (   779240) 43:19:35 adr: 1 control: 0 mode: -1
track:  37 lba:    198622 (   794488) 44:10:22 adr: 1 control: 0 mode: -1
track:  38 lba:    202227 (   808908) 44:58:27 adr: 1 control: 0 mode: -1
track:  39 lba:    206095 (   824380) 45:49:70 adr: 1 control: 0 mode: -1
track:  40 lba:    218250 (   873000) 48:32:00 adr: 1 control: 0 mode: -1
track:  41 lba:    228772 (   915088) 50:52:22 adr: 1 control: 0 mode: -1
track:  42 lba:    233175 (   932700) 51:51:00 adr: 1 control: 0 mode: -1
track:  43 lba:    236920 (   947680) 52:40:70 adr: 1 control: 0 mode: -1
track:  44 lba:    239447 (   957788) 53:14:47 adr: 1 control: 0 mode: -1
track:  45 lba:    244462 (   977848) 54:21:37 adr: 1 control: 0 mode: -1
track:lout lba:    263737 (  1054948) 58:38:37 adr: 1 control: 0 mode: -1
